<svg width="65" height="65" viewBox="0 0 65 65" fill="none" xmlns="http://www.w3.org/2000/svg">
<g filter="url(#filter0_d_7_54)">
<path d="M33.4768 14.4538C33.1861 14.1632 32.792 14 32.381 14C31.9699 14 31.5758 14.1632 31.2851 14.4538L20.4351 25.3038C20.1528 25.5962 19.9965 25.9877 20.0001 26.3941C20.0036 26.8005 20.1666 27.1893 20.454 27.4766C20.7414 27.764 21.1301 27.927 21.5365 27.9306C21.9429 27.9341 22.3345 27.7779 22.6268 27.4955L23.081 27.0414V37.2497C23.081 37.6608 23.2443 38.055 23.5349 38.3457C23.8256 38.6364 24.2199 38.7997 24.631 38.7997H27.731C28.142 38.7997 28.5363 38.6364 28.827 38.3457C29.1177 38.055 29.281 37.6608 29.281 37.2497V34.1497C29.281 33.7386 29.4443 33.3443 29.7349 33.0537C30.0256 32.763 30.4199 32.5997 30.831 32.5997H33.931C34.342 32.5997 34.7363 32.763 35.027 33.0537C35.3177 33.3443 35.481 33.7386 35.481 34.1497V37.2497C35.481 37.6608 35.6443 38.055 35.9349 38.3457C36.2256 38.6364 36.6199 38.7997 37.031 38.7997H40.131C40.542 38.7997 40.9363 38.6364 41.227 38.3457C41.5177 38.055 41.681 37.6608 41.681 37.2497V27.0414L42.1351 27.4955C42.4274 27.7779 42.819 27.9341 43.2254 27.9306C43.6318 27.927 44.0205 27.764 44.3079 27.4766C44.5953 27.1893 44.7583 26.8005 44.7619 26.3941C44.7654 25.9877 44.6091 25.5962 44.3268 25.3038L33.4768 14.4538Z" fill="#FA4A0C"/>
</g>
<defs>
<filter id="filter0_d_7_54" x="-3.11902" y="-3.10034" width="71" height="71" filterUnits="userSpaceOnUse" color-interpolation-filters="sRGB">
<feFlood flood-opacity="0" result="BackgroundImageFix"/>
<feColorMatrix in="SourceAlpha" type="matrix" values="0 0 0 0 0 0 0 0 0 0 0 0 0 0 0 0 0 0 127 0" result="hardAlpha"/>
<feOffset dy="6"/>
<feGaussianBlur stdDeviation="10"/>
<feColorMatrix type="matrix" values="0 0 0 0 0.841667 0 0 0 0 0.219258 0 0 0 0 0 0 0 0 0.4 0"/>
<feBlend mode="normal" in2="BackgroundImageFix" result="effect1_dropShadow_7_54"/>
<feBlend mode="normal" in="SourceGraphic" in2="effect1_dropShadow_7_54" result="shape"/>
</filter>
</defs>
</svg>
